<mxfile host="Electron" modified="2024-05-09T14:33:32.672Z" agent="Mozilla/5.0 (Windows NT 10.0; Win64; x64) AppleWebKit/537.36 (KHTML, like Gecko) draw.io/24.2.5 Chrome/120.0.6099.109 Electron/28.1.0 Safari/537.36" etag="RW8wKZ1P3RZ5sLKvXmoa" version="24.2.5" type="device">
  <diagram name="第 1 页" id="32n40c7l7pKTG_g5JmJa">
    <mxGraphModel dx="2074" dy="1205" grid="1" gridSize="10" guides="1" tooltips="1" connect="1" arrows="1" fold="1" page="1" pageScale="1" pageWidth="827" pageHeight="1169" math="0" shadow="0">
      <root>
        <mxCell id="0" />
        <mxCell id="1" parent="0" />
        <mxCell id="J4h7NY7PrI7e4pMhGuam-14" value="" style="rounded=0;whiteSpace=wrap;html=1;fillColor=#ffcccc;strokeColor=#36393d;" parent="1" vertex="1">
          <mxGeometry x="70" y="460" width="620" height="500" as="geometry" />
        </mxCell>
        <mxCell id="J4h7NY7PrI7e4pMhGuam-3" value="Clusters" style="rounded=0;whiteSpace=wrap;html=1;fontSize=15;fillColor=#ffcc99;strokeColor=#36393d;" parent="1" vertex="1">
          <mxGeometry x="280" y="630" width="120" height="60" as="geometry" />
        </mxCell>
        <mxCell id="J4h7NY7PrI7e4pMhGuam-4" value="Clusters Groups" style="rounded=0;whiteSpace=wrap;html=1;fontSize=15;fillColor=#ffcc99;strokeColor=#36393d;" parent="1" vertex="1">
          <mxGeometry x="280" y="750" width="120" height="60" as="geometry" />
        </mxCell>
        <mxCell id="J4h7NY7PrI7e4pMhGuam-5" value="Simplified Mesh Vertices" style="rounded=0;whiteSpace=wrap;html=1;fontSize=15;fillColor=#fff2cc;strokeColor=#d6b656;" parent="1" vertex="1">
          <mxGeometry x="110" y="880" width="460" height="40" as="geometry" />
        </mxCell>
        <mxCell id="J4h7NY7PrI7e4pMhGuam-6" value="Mesh Vertices" style="rounded=0;whiteSpace=wrap;html=1;fontSize=15;fillColor=#fff2cc;strokeColor=#d6b656;" parent="1" vertex="1">
          <mxGeometry x="110" y="520" width="460" height="40" as="geometry" />
        </mxCell>
        <mxCell id="J4h7NY7PrI7e4pMhGuam-7" value="" style="endArrow=classic;html=1;rounded=0;exitX=0.25;exitY=1;exitDx=0;exitDy=0;entryX=0.25;entryY=0;entryDx=0;entryDy=0;" parent="1" source="J4h7NY7PrI7e4pMhGuam-6" target="J4h7NY7PrI7e4pMhGuam-5" edge="1">
          <mxGeometry width="50" height="50" relative="1" as="geometry">
            <mxPoint x="390" y="640" as="sourcePoint" />
            <mxPoint x="440" y="590" as="targetPoint" />
          </mxGeometry>
        </mxCell>
        <mxCell id="J4h7NY7PrI7e4pMhGuam-8" value="Simplification" style="text;html=1;align=center;verticalAlign=middle;whiteSpace=wrap;rounded=0;fontSize=15;" parent="1" vertex="1">
          <mxGeometry x="120" y="710" width="80" height="30" as="geometry" />
        </mxCell>
        <mxCell id="J4h7NY7PrI7e4pMhGuam-9" value="" style="endArrow=classic;html=1;rounded=0;exitX=0.5;exitY=1;exitDx=0;exitDy=0;entryX=0.5;entryY=0;entryDx=0;entryDy=0;" parent="1" source="J4h7NY7PrI7e4pMhGuam-6" target="J4h7NY7PrI7e4pMhGuam-3" edge="1">
          <mxGeometry width="50" height="50" relative="1" as="geometry">
            <mxPoint x="390" y="640" as="sourcePoint" />
            <mxPoint x="440" y="590" as="targetPoint" />
          </mxGeometry>
        </mxCell>
        <mxCell id="J4h7NY7PrI7e4pMhGuam-10" value="" style="endArrow=classic;html=1;rounded=0;exitX=0.5;exitY=1;exitDx=0;exitDy=0;entryX=0.5;entryY=0;entryDx=0;entryDy=0;" parent="1" source="J4h7NY7PrI7e4pMhGuam-3" target="J4h7NY7PrI7e4pMhGuam-4" edge="1">
          <mxGeometry width="50" height="50" relative="1" as="geometry">
            <mxPoint x="350" y="570" as="sourcePoint" />
            <mxPoint x="350" y="640" as="targetPoint" />
          </mxGeometry>
        </mxCell>
        <mxCell id="J4h7NY7PrI7e4pMhGuam-11" value="" style="endArrow=classic;html=1;rounded=0;exitX=1;exitY=0.5;exitDx=0;exitDy=0;entryX=1;entryY=0.5;entryDx=0;entryDy=0;" parent="1" source="J4h7NY7PrI7e4pMhGuam-5" target="J4h7NY7PrI7e4pMhGuam-6" edge="1">
          <mxGeometry width="50" height="50" relative="1" as="geometry">
            <mxPoint x="390" y="640" as="sourcePoint" />
            <mxPoint x="440" y="590" as="targetPoint" />
            <Array as="points">
              <mxPoint x="640" y="900" />
              <mxPoint x="640" y="540" />
            </Array>
          </mxGeometry>
        </mxCell>
        <mxCell id="J4h7NY7PrI7e4pMhGuam-12" value="Partition Clusters" style="text;html=1;align=center;verticalAlign=middle;whiteSpace=wrap;rounded=0;fontSize=15;" parent="1" vertex="1">
          <mxGeometry x="390" y="585" width="140" height="30" as="geometry" />
        </mxCell>
        <mxCell id="J4h7NY7PrI7e4pMhGuam-13" value="Partition Clusters Groups" style="text;html=1;align=center;verticalAlign=middle;whiteSpace=wrap;rounded=0;fontSize=15;" parent="1" vertex="1">
          <mxGeometry x="390" y="710" width="180" height="30" as="geometry" />
        </mxCell>
      </root>
    </mxGraphModel>
  </diagram>
</mxfile>
